<svg fill="none" height="10" viewBox="0 0 23 10" width="23" xmlns="http://www.w3.org/2000/svg"><path d="m3.64645 9.35355c.19526.19527.51184.19527.7071 0l3.18198-3.18198c.19527-.19526.19527-.51184 0-.7071-.19526-.19527-.51184-.19527-.7071 0l-2.82843 2.82842-2.82843-2.82842c-.195259-.19527-.511842-.19527-.707104 0-.195262.19526-.195262.51184 0 .7071zm14.99995 0c.1953.19527.5119.19527.7072 0l3.1819-3.18198c.1953-.19526.1953-.51184 0-.7071-.1952-.19527-.5118-.19527-.7071 0l-2.8284 2.82842-2.8284-2.82842c-.1953-.19527-.5119-.19527-.7071 0-.1953.19526-.1953.51184 0 .7071zm-14.1464-.35355c0-4.17302 3.16391-7.5 7-7.5v-1c-4.44818 0-8 3.83647-8 8.5zm7-7.5c3.8361 0 7 3.32698 7 7.5h1c0-4.66353-3.5518-8.5-8-8.5z" fill="#fff"/></svg>